<svg width="67" height="50" viewBox="0 0 67 50" fill="none" xmlns="http://www.w3.org/2000/svg">
<path d="M21.835 2.91984V12.2538H20.6221V2.91984H21.835ZM24.8224 2.91984V3.93273H17.6411V2.91984H24.8224ZM31.8836 11.2474V12.2538H26.962V11.2474H31.8836ZM27.2109 2.91984V12.2538H25.979V2.91984H27.2109ZM31.2325 6.93294V7.93942H26.962V6.93294H31.2325ZM31.8197 2.91984V3.93273H26.962V2.91984H31.8197ZM38.798 9.28566H40.0236C39.9597 9.87544 39.7916 10.4033 39.5193 10.8691C39.2469 11.335 38.8618 11.7046 38.3639 11.9781C37.866 12.2474 37.2447 12.382 36.4999 12.382C35.9552 12.382 35.4594 12.2794 35.0126 12.0743C34.57 11.8691 34.1891 11.5785 33.87 11.2025C33.5508 10.8221 33.304 10.3669 33.1296 9.83699C32.9593 9.30275 32.8742 8.7087 32.8742 8.05481V7.12526C32.8742 6.47136 32.9593 5.87945 33.1296 5.34949C33.304 4.81527 33.5529 4.35797 33.8764 3.97761C34.2041 3.59724 34.5977 3.30448 35.0573 3.09934C35.5169 2.8942 36.034 2.79163 36.6084 2.79163C37.3107 2.79163 37.9043 2.92412 38.3894 3.18909C38.8746 3.45407 39.2512 3.82162 39.5193 4.29174C39.7916 4.75758 39.9597 5.29821 40.0236 5.91364H38.798C38.7384 5.47771 38.6277 5.10375 38.466 4.79177C38.3044 4.47551 38.0745 4.2319 37.7766 4.06095C37.4788 3.89 37.0893 3.80451 36.6084 3.80451C36.1957 3.80451 35.8318 3.88358 35.5169 4.04171C35.2062 4.19984 34.9445 4.42422 34.7318 4.71484C34.5233 5.00546 34.3657 5.35377 34.2594 5.75978C34.153 6.16579 34.0998 6.61668 34.0998 7.11243V8.05481C34.0998 8.51211 34.1467 8.94163 34.2402 9.34335C34.3381 9.74509 34.4849 10.0977 34.6807 10.4011C34.8765 10.7046 35.1254 10.9439 35.4275 11.1191C35.7297 11.29 36.0871 11.3756 36.4999 11.3756C37.0234 11.3756 37.4404 11.2922 37.7511 11.1256C38.0617 10.9588 38.2959 10.7195 38.4533 10.4075C38.615 10.0955 38.7299 9.72159 38.798 9.28566ZM47.5508 6.93294V7.93942H42.5207V6.93294H47.5508ZM42.7122 2.91984V12.2538H41.4802V2.91984H42.7122ZM48.6232 2.91984V12.2538H47.3976V2.91984H48.6232Z" fill="black"/>
<path d="M7.63694 21.1756H11.4129V32.1788C11.4076 33.2096 11.1626 34.111 10.6778 34.8829C10.1929 35.6496 9.5223 36.2453 8.66603 36.6701C7.81491 37.0949 6.82968 37.3073 5.71033 37.3073C4.71994 37.3073 3.81982 37.1337 3.00996 36.7867C2.20527 36.4396 1.56306 35.9009 1.08334 35.1703C0.608778 34.4399 0.374076 33.5049 0.379234 32.3652H4.19379C4.20927 32.7745 4.28664 33.1242 4.42591 33.4142C4.57035 33.6991 4.76894 33.9141 5.0217 34.0592C5.27445 34.2043 5.57621 34.2768 5.92697 34.2768C6.29322 34.2768 6.60272 34.1991 6.85546 34.0437C7.10822 33.883 7.29908 33.6474 7.42804 33.3365C7.56215 33.0257 7.63179 32.6398 7.63694 32.1788V21.1756Z" fill="black"/>
<path d="M39.6562 37.0897V21.1756H46.264C47.4504 21.1756 48.4434 21.344 49.2429 21.6807C50.0476 22.0175 50.6511 22.4888 51.0534 23.095C51.461 23.7011 51.6647 24.4031 51.6647 25.2008C51.6647 25.8069 51.5383 26.3482 51.2856 26.8248C51.0328 27.2963 50.6847 27.6873 50.241 27.9981C49.7974 28.309 49.2841 28.5266 48.7012 28.6509V28.8063C49.3409 28.8374 49.9315 29.0109 50.4731 29.3269C51.0199 29.643 51.4584 30.0833 51.7885 30.6479C52.1186 31.2074 52.2837 31.8705 52.2837 32.6372C52.2837 33.4919 52.067 34.256 51.6338 34.9295C51.2004 35.5978 50.5738 36.1261 49.7535 36.5147C48.9334 36.898 47.9379 37.0897 46.7669 37.0897H39.6562ZM43.4863 33.9893H45.8539C46.6844 33.9893 47.2957 33.8313 47.6876 33.5153C48.0848 33.1992 48.2835 32.759 48.2835 32.1943C48.2835 31.785 48.188 31.4327 47.9971 31.1375C47.8063 30.837 47.5354 30.6065 47.1848 30.446C46.834 30.2801 46.4136 30.1973 45.9235 30.1973H43.4863V33.9893ZM43.4863 27.7185H45.6063C46.0241 27.7185 46.3955 27.6485 46.7204 27.5086C47.0454 27.3688 47.2982 27.1667 47.4787 26.9025C47.6644 26.6383 47.7573 26.3197 47.7573 25.9467C47.7573 25.4132 47.569 24.9935 47.1925 24.688C46.8159 24.3823 46.3078 24.2294 45.6682 24.2294H43.4863V27.7185ZM62.3201 25.9467C62.2686 25.3769 62.039 24.934 61.6315 24.6181C61.2292 24.2968 60.654 24.1362 59.906 24.1362C59.4109 24.1362 58.9982 24.201 58.668 24.3305C58.3379 24.46 58.0903 24.6387 57.9252 24.8666C57.7602 25.0894 57.6751 25.3458 57.67 25.6359C57.6596 25.8743 57.706 26.084 57.8092 26.2653C57.9175 26.4467 58.0723 26.6072 58.2734 26.7472C58.4798 26.8818 58.7274 27.001 59.0162 27.1046C59.3051 27.2082 59.6301 27.2988 59.9911 27.3766L61.3529 27.6873C62.137 27.8583 62.8282 28.0862 63.4265 28.3711C64.0301 28.6561 64.5356 28.9954 64.9431 29.3891C65.3558 29.7828 65.6678 30.2361 65.8794 30.7489C66.0908 31.2618 66.1991 31.8369 66.2044 32.474C66.1991 33.479 65.9464 34.3416 65.446 35.0616C64.9457 35.7817 64.2261 36.3334 63.2873 36.7167C62.3537 37.1001 61.2265 37.2918 59.906 37.2918C58.5804 37.2918 57.4249 37.0923 56.4397 36.6934C55.4544 36.2945 54.6884 35.6884 54.1416 34.8752C53.5949 34.0618 53.3138 33.0335 53.2983 31.7902H56.9658C56.9968 32.3031 57.1334 32.7304 57.3759 33.0723C57.6183 33.4142 57.9511 33.6733 58.3741 33.8495C58.8022 34.0255 59.2974 34.1136 59.8596 34.1136C60.3755 34.1136 60.8139 34.0437 61.175 33.9038C61.5413 33.7639 61.8224 33.5697 62.0183 33.321C62.2144 33.0723 62.315 32.7874 62.3201 32.4662C62.315 32.1658 62.2222 31.9094 62.0415 31.6969C61.861 31.4794 61.5825 31.2929 61.2059 31.1375C60.8346 30.9769 60.36 30.8292 59.7823 30.6945L58.1265 30.306C56.7543 29.99 55.6737 29.4798 54.8844 28.7753C54.0952 28.0655 53.7033 27.1071 53.7084 25.9001C53.7033 24.9159 53.9662 24.0534 54.4976 23.3126C55.0289 22.5718 55.7639 21.9942 56.7028 21.5798C57.6416 21.1653 58.7119 20.9581 59.9138 20.9581C61.1415 20.9581 62.2067 21.1678 63.1094 21.5875C64.0172 22.002 64.7213 22.5847 65.2217 23.3359C65.7221 24.087 65.9773 24.9573 65.9877 25.9467H62.3201Z" fill="black"/>
<path d="M37.0736 46.2371L33.6035 39.5255C33.4469 39.2225 33.1766 38.996 32.8506 38.8923L32.0207 38.6284C33.995 37.2704 35.5457 35.2656 36.3241 32.7961C38.1759 26.9212 34.9356 20.6538 29.0847 18.7939C23.2339 16.9338 16.9927 20.1869 15.141 26.0618C13.2891 31.9367 16.5294 38.2041 22.3802 40.064C24.8397 40.846 27.365 40.7262 29.6073 39.8864L29.3446 40.7198C29.2415 41.047 29.2704 41.3995 29.4271 41.7024L32.8972 48.414C33.2243 49.0468 33.9982 49.2929 34.6234 48.9628L36.5205 47.974C37.1506 47.6455 37.3956 46.8683 37.0736 46.2371ZM23.6696 35.9736C20.0694 34.8291 18.0736 30.9769 19.2146 27.3569C20.354 23.7419 24.1902 21.7382 27.7955 22.8842C31.3956 24.0288 33.3914 27.881 32.2504 31.501C31.1109 35.116 27.2748 37.1197 23.6696 35.9736Z" fill="black"/>
<path d="M25.6625 29.4883C26.5837 29.4883 27.3303 28.7373 27.3303 27.8105C27.3303 26.8838 26.5837 26.1327 25.6625 26.1327C24.7411 26.1327 23.9945 26.8838 23.9945 27.8105C23.9945 28.7373 24.7411 29.4883 25.6625 29.4883ZM26.9107 29.9156L26.2879 32.4245L25.8709 30.6418L26.2879 29.9078H25.037L25.4539 30.6418L25.037 32.4245L24.4141 29.9156C23.485 29.9602 22.7437 30.7244 22.7437 31.6695V32.2148C22.7437 32.562 23.0237 32.8439 23.3691 32.8439H27.9558C28.3011 32.8439 28.5813 32.562 28.5813 32.2148V31.6695C28.5813 30.7244 27.8398 29.9602 26.9107 29.9156Z" fill="black"/>
</svg>
